# xmcd
#
# Track frame offsets: 
#        150
#        26549
#        48586
#        71600
#        92548
#        114987
#        134195
#        153946
#        182686
#        211841
#        232877
#        258553
#        285183
#        311678
#        334886
#
# Disc length: 4717 seconds
#
# Revision: 3
# Processed by: cddbd v1.5.2PL0 Copyright (c) Steve Scherf et al.
# Submitted via: ExactAudioCopy v1.0b3
#
DISCID=cf126b0f
DTITLE=Various Artist - Blues Paradise  Vol.11
DYEAR=2002
DGENRE=Blues
TTITLE0=Lonne Brooks - Holding On The Memories
TTITLE1=Preachers Keen - Krippled Man Blues
TTITLE2=E. Charles and P. Walker - Born In Louisiana
TTITLE3=T.Benoit, D.Davies, K.Neal - Deal With It
TTITLE4=Walter Trout - Through The Eyes Of Love
TTITLE5=Sonny Rhodes - Life's Rainbow
TTITLE6=Preachers  Keen - It's A Shame
TTITLE7=Memphis 55 - Somebody After A White
TTITLE8=Tommy Castro - How Long Must I Cry
TTITLE9=Tommy Lepson - Some Old Blues
TTITLE10=Jimmy Spacek - Blues For The City
TTITLE11=Chuck Alvarez - Worried Life Blues
TTITLE12=Anthony Gomes Band - Mistery For Company
TTITLE13=Jimmy Burns - Talk To Me
TTITLE14=Rob Tognoni Band - Stones And Colours
EXTD=YEAR: 1997 ID3G:   0
EXTT0=
EXTT1=
EXTT2=
EXTT3=
EXTT4=
EXTT5=
EXTT6=
EXTT7=
EXTT8=
EXTT9=
EXTT10=
EXTT11=
EXTT12=
EXTT13=
EXTT14=
PLAYORDER=
